{"title":"Legend.Of.The.Guardians.PROPER.DVDRip.XviD-VAMPS","uid":6012172,"size":735239000,"categoryP":"video","categoryS":"movies","magnet":"?xt=urn:btih:191bf3bb1e2644992b5a0c37635d2e553d2455ba&amp;dn=Legend.Of.The.Guardians.PROPER.DVDRip.XviD-VAMPS&amp;tr=udp%3A%2F%2Ftracker.openbittorrent.com%3A80&amp;tr=udp%3A%2F%2Fopen.demonii.com%3A1337&amp;tr=udp%3A%2F%2Ftracker.coppersurfer.tk%3A6969&amp;tr=udp%3A%2F%2Fexodus.desync.com%3A6969","seeders":0,"leechers":1,"uploader":"TvTeam","files":5,"time":1291499916,"description":". \n  &lt;a href=&quot;\nhttp://www.torrentday.com/&quot; rel=&quot;nofollow&quot; target=&quot;_NEW&quot;&gt;\nhttp://www.torrentday.com/&lt;/a&gt;        :     The Hottest Private Tracker On The Net!!!\n\n\n               www . TorrentDay . Com \n(((((((((((((= Enjoy No RAR releases =))))))))))))))))))))\n\n\n...................................NFO:....................................\n\n.VAMPS:\n\nLegend of the Guardians (2010)\n &lt;a href=&quot;\nhttp://www.imdb.com/title/tt1219342/&quot; rel=&quot;nofollow&quot; target=&quot;_NEW&quot;&gt;\nhttp://www.imdb.com/title/tt1219342/&lt;/a&gt;\n\nQPEL and custom pixel shape used on other release.\n\nFile size                        : 701 MiB\nDuration                         : 1h 36mn\n\nVideo\nID                               : 0\nFormat                           : MPEG-4 Visual\nFormat profile                   : Advanced Simple@L5\nFormat settings, BVOP            : Yes\nFormat settings, QPel            : No\nFormat settings, GMC             : No warppoints\nFormat settings, Matrix          : Default (H.263)\nCodec ID                         : XVID\nCodec ID/Hint                    : XviD\nDuration                         : 1h 36mn\nBit rate                         : 835 Kbps\nWidth                            : 608 pixels\nHeight                           : 256 pixels\nDisplay aspect ratio             : 2.35:1\nFrame rate                       : 23.976 fps\nColor space                      : YUV\nChroma subsampling               : 4:2:0\nBit depth                        : 8 bits\nScan type                        : Progressive\nBits/(Pixel*Frame)               : 0.224\nStream size                      : 578 MiB (82%)\nWriting library                  : XviD 1.2.1\n\nAudio\nID                               : 1\nFormat                           : MPEG Audio\nFormat version                   : Version 1\nFormat profile                   : Layer 3\nMode                             : Joint stereo\nMode extension                   : MS Stereo\nCodec ID                         : 55\nCodec ID/Hint                    : MP3\nDuration                         : 1h 36mn\nBit rate mode                    : Variable\nBit rate                         : 160 Kbps\nChannel(s)                       : 2 channels\nSampling rate                    : 48.0 KHz\nStream size                      : 114 MiB (16%)\nAlignment                        : Aligned on interleaves\nInterleave, duration             : 24 ms (0.58 video frame)\nInterleave, preload duration     : 111 ms\nWriting library                  : LAME3.90.","torrent":{"xt":"urn:btih:191bf3bb1e2644992b5a0c37635d2e553d2455ba","amp;dn":"Legend.Of.The.Guardians.PROPER.DVDRip.XviD-VAMPS","amp;tr":["udp%3A%2F%2Ftracker.openbittorrent.com%3A80","udp%3A%2F%2Fopen.demonii.com%3A1337","udp%3A%2F%2Ftracker.coppersurfer.tk%3A6969","udp%3A%2F%2Fexodus.desync.com%3A6969"],"infoHash":"191bf3bb1e2644992b5a0c37635d2e553d2455ba","infoHashBuffer":{"type":"Buffer","data":[25,27,243,187,30,38,68,153,43,90,12,55,99,93,46,85,61,36,85,186]},"announce":[],"urlList":[]}}